<mxfile host="app.diagrams.net" modified="2023-09-11T16:53:23.765Z" agent="Mozilla/5.0 (Windows NT 10.0; Win64; x64) AppleWebKit/537.36 (KHTML, like Gecko) Chrome/116.0.0.0 Safari/537.36" etag="DBvvM7fscOpOrb4_IiwU" version="21.7.4" type="device">
  <diagram name="Page-1" id="13e1069c-82ec-6db2-03f1-153e76fe0fe0">
    <mxGraphModel dx="1400" dy="712" grid="1" gridSize="10" guides="1" tooltips="1" connect="1" arrows="1" fold="1" page="1" pageScale="1" pageWidth="1100" pageHeight="850" background="none" math="0" shadow="0">
      <root>
        <mxCell id="0" />
        <mxCell id="1" parent="0" />
        <mxCell id="7baba1c4bc27f4b0-2" value=":App" style="shape=umlLifeline;perimeter=lifelinePerimeter;whiteSpace=wrap;html=1;container=1;collapsible=0;recursiveResize=0;outlineConnect=0;rounded=1;shadow=0;comic=0;labelBackgroundColor=none;strokeWidth=1;fontFamily=Verdana;fontSize=12;align=center;" parent="1" vertex="1">
          <mxGeometry x="240" y="80" width="100" height="720" as="geometry" />
        </mxCell>
        <mxCell id="7baba1c4bc27f4b0-10" value="" style="html=1;points=[];perimeter=orthogonalPerimeter;rounded=0;shadow=0;comic=0;labelBackgroundColor=none;strokeWidth=1;fontFamily=Verdana;fontSize=12;align=center;" parent="7baba1c4bc27f4b0-2" vertex="1">
          <mxGeometry x="45" y="100" width="10" height="600" as="geometry" />
        </mxCell>
        <mxCell id="GQSEvU85v_cJfRwWWk-1-11" value="printHelp()" style="html=1;align=left;spacingLeft=2;endArrow=block;rounded=0;edgeStyle=orthogonalEdgeStyle;curved=0;rounded=0;" parent="7baba1c4bc27f4b0-2" target="7baba1c4bc27f4b0-10" edge="1">
          <mxGeometry relative="1" as="geometry">
            <mxPoint x="55" y="120" as="sourcePoint" />
            <Array as="points">
              <mxPoint x="85" y="120" />
              <mxPoint x="85" y="150" />
            </Array>
            <mxPoint x="60" y="150" as="targetPoint" />
          </mxGeometry>
        </mxCell>
        <mxCell id="GQSEvU85v_cJfRwWWk-1-12" value="loadConfiguration()" style="html=1;align=left;spacingLeft=2;endArrow=block;rounded=0;edgeStyle=orthogonalEdgeStyle;curved=0;rounded=0;" parent="7baba1c4bc27f4b0-2" edge="1">
          <mxGeometry relative="1" as="geometry">
            <mxPoint x="55" y="170" as="sourcePoint" />
            <Array as="points">
              <mxPoint x="85" y="170" />
              <mxPoint x="85" y="200" />
            </Array>
            <mxPoint x="55" y="200" as="targetPoint" />
          </mxGeometry>
        </mxCell>
        <mxCell id="GQSEvU85v_cJfRwWWk-1-16" value="retriveAndSave()" style="html=1;align=left;spacingLeft=2;endArrow=block;rounded=0;edgeStyle=orthogonalEdgeStyle;curved=0;rounded=0;" parent="7baba1c4bc27f4b0-2" edge="1">
          <mxGeometry relative="1" as="geometry">
            <mxPoint x="55" y="220" as="sourcePoint" />
            <Array as="points">
              <mxPoint x="85" y="220" />
              <mxPoint x="85" y="250" />
            </Array>
            <mxPoint x="55" y="250" as="targetPoint" />
          </mxGeometry>
        </mxCell>
        <mxCell id="GQSEvU85v_cJfRwWWk-1-20" value="loadArticlesAndEXtract()" style="html=1;align=left;spacingLeft=2;endArrow=block;rounded=0;edgeStyle=orthogonalEdgeStyle;curved=0;rounded=0;" parent="7baba1c4bc27f4b0-2" edge="1">
          <mxGeometry relative="1" as="geometry">
            <mxPoint x="55" y="390" as="sourcePoint" />
            <Array as="points">
              <mxPoint x="85" y="390" />
              <mxPoint x="85" y="420" />
            </Array>
            <mxPoint x="55" y="420" as="targetPoint" />
          </mxGeometry>
        </mxCell>
        <mxCell id="7baba1c4bc27f4b0-3" value=":SourceWrapper" style="shape=umlLifeline;perimeter=lifelinePerimeter;whiteSpace=wrap;html=1;container=1;collapsible=0;recursiveResize=0;outlineConnect=0;rounded=1;shadow=0;comic=0;labelBackgroundColor=none;strokeWidth=1;fontFamily=Verdana;fontSize=12;align=center;" parent="1" vertex="1">
          <mxGeometry x="400" y="80" width="100" height="720" as="geometry" />
        </mxCell>
        <mxCell id="GQSEvU85v_cJfRwWWk-1-13" value="" style="html=1;points=[[0,0,0,0,5],[0,1,0,0,-5],[1,0,0,0,5],[1,1,0,0,-5]];perimeter=orthogonalPerimeter;outlineConnect=0;targetShapes=umlLifeline;portConstraint=eastwest;newEdgeStyle={&quot;curved&quot;:0,&quot;rounded&quot;:0};" parent="7baba1c4bc27f4b0-3" vertex="1">
          <mxGeometry x="45" y="260" width="10" height="50" as="geometry" />
        </mxCell>
        <mxCell id="GQSEvU85v_cJfRwWWk-1-15" value="iterator populated" style="html=1;verticalAlign=bottom;endArrow=open;dashed=1;endSize=8;curved=0;rounded=0;" parent="7baba1c4bc27f4b0-3" edge="1">
          <mxGeometry relative="1" as="geometry">
            <mxPoint x="-105" y="300" as="targetPoint" />
            <mxPoint x="45" y="300" as="sourcePoint" />
          </mxGeometry>
        </mxCell>
        <mxCell id="7baba1c4bc27f4b0-4" value=":AssetsUtils" style="shape=umlLifeline;perimeter=lifelinePerimeter;whiteSpace=wrap;html=1;container=1;collapsible=0;recursiveResize=0;outlineConnect=0;rounded=1;shadow=0;comic=0;labelBackgroundColor=none;strokeWidth=1;fontFamily=Verdana;fontSize=12;align=center;" parent="1" vertex="1">
          <mxGeometry x="540" y="80" width="100" height="720" as="geometry" />
        </mxCell>
        <mxCell id="GQSEvU85v_cJfRwWWk-1-17" value="" style="html=1;points=[[0,0,0,0,5],[0,1,0,0,-5],[1,0,0,0,5],[1,1,0,0,-5]];perimeter=orthogonalPerimeter;outlineConnect=0;targetShapes=umlLifeline;portConstraint=eastwest;newEdgeStyle={&quot;curved&quot;:0,&quot;rounded&quot;:0};" parent="7baba1c4bc27f4b0-4" vertex="1">
          <mxGeometry x="45" y="330" width="10" height="50" as="geometry" />
        </mxCell>
        <mxCell id="GQSEvU85v_cJfRwWWk-1-21" value="" style="html=1;points=[[0,0,0,0,5],[0,1,0,0,-5],[1,0,0,0,5],[1,1,0,0,-5]];perimeter=orthogonalPerimeter;outlineConnect=0;targetShapes=umlLifeline;portConstraint=eastwest;newEdgeStyle={&quot;curved&quot;:0,&quot;rounded&quot;:0};" parent="7baba1c4bc27f4b0-4" vertex="1">
          <mxGeometry x="45" y="430" width="10" height="50" as="geometry" />
        </mxCell>
        <mxCell id="GQSEvU85v_cJfRwWWk-1-24" value="" style="html=1;points=[[0,0,0,0,5],[0,1,0,0,-5],[1,0,0,0,5],[1,1,0,0,-5]];perimeter=orthogonalPerimeter;outlineConnect=0;targetShapes=umlLifeline;portConstraint=eastwest;newEdgeStyle={&quot;curved&quot;:0,&quot;rounded&quot;:0};" parent="7baba1c4bc27f4b0-4" vertex="1">
          <mxGeometry x="45" y="500" width="10" height="50" as="geometry" />
        </mxCell>
        <mxCell id="GQSEvU85v_cJfRwWWk-1-33" value="" style="html=1;points=[[0,0,0,0,5],[0,1,0,0,-5],[1,0,0,0,5],[1,1,0,0,-5]];perimeter=orthogonalPerimeter;outlineConnect=0;targetShapes=umlLifeline;portConstraint=eastwest;newEdgeStyle={&quot;curved&quot;:0,&quot;rounded&quot;:0};" parent="7baba1c4bc27f4b0-4" vertex="1">
          <mxGeometry x="45" y="630" width="10" height="50" as="geometry" />
        </mxCell>
        <mxCell id="7baba1c4bc27f4b0-5" value=":ArticleAnalyzer" style="shape=umlLifeline;perimeter=lifelinePerimeter;whiteSpace=wrap;html=1;container=1;collapsible=0;recursiveResize=0;outlineConnect=0;rounded=1;shadow=0;comic=0;labelBackgroundColor=none;strokeWidth=1;fontFamily=Verdana;fontSize=12;align=center;" parent="1" vertex="1">
          <mxGeometry x="680" y="80" width="100" height="720" as="geometry" />
        </mxCell>
        <mxCell id="GQSEvU85v_cJfRwWWk-1-27" value="" style="html=1;points=[[0,0,0,0,5],[0,1,0,0,-5],[1,0,0,0,5],[1,1,0,0,-5]];perimeter=orthogonalPerimeter;outlineConnect=0;targetShapes=umlLifeline;portConstraint=eastwest;newEdgeStyle={&quot;curved&quot;:0,&quot;rounded&quot;:0};" parent="7baba1c4bc27f4b0-5" vertex="1">
          <mxGeometry x="40" y="560" width="10" height="50" as="geometry" />
        </mxCell>
        <mxCell id="7baba1c4bc27f4b0-11" value="loadOptions()" style="html=1;verticalAlign=bottom;endArrow=block;entryX=0;entryY=0;labelBackgroundColor=none;fontFamily=Verdana;fontSize=12;edgeStyle=elbowEdgeStyle;elbow=vertical;" parent="1" target="7baba1c4bc27f4b0-10" edge="1">
          <mxGeometry relative="1" as="geometry">
            <mxPoint x="155" y="180" as="sourcePoint" />
          </mxGeometry>
        </mxCell>
        <mxCell id="GQSEvU85v_cJfRwWWk-1-5" value="User" style="shape=umlActor;verticalLabelPosition=bottom;verticalAlign=top;html=1;outlineConnect=0;" parent="1" vertex="1">
          <mxGeometry x="140" y="60" width="30" height="60" as="geometry" />
        </mxCell>
        <mxCell id="GQSEvU85v_cJfRwWWk-1-6" value="" style="html=1;points=[];perimeter=orthogonalPerimeter;rounded=0;shadow=0;comic=0;labelBackgroundColor=none;strokeWidth=1;fontFamily=Verdana;fontSize=12;align=center;" parent="1" vertex="1">
          <mxGeometry x="150" y="150" width="10" height="650" as="geometry" />
        </mxCell>
        <mxCell id="GQSEvU85v_cJfRwWWk-1-14" value="retriveArticles()" style="html=1;verticalAlign=bottom;endArrow=block;curved=0;rounded=0;entryX=0;entryY=0;entryDx=0;entryDy=5;" parent="1" source="7baba1c4bc27f4b0-10" target="GQSEvU85v_cJfRwWWk-1-13" edge="1">
          <mxGeometry relative="1" as="geometry">
            <mxPoint x="300" y="325" as="sourcePoint" />
          </mxGeometry>
        </mxCell>
        <mxCell id="GQSEvU85v_cJfRwWWk-1-18" value="saveArticlesToFile(sourceWrapper.iterator())" style="html=1;verticalAlign=bottom;endArrow=block;curved=0;rounded=0;entryX=0;entryY=0;entryDx=0;entryDy=5;exitX=1.06;exitY=0.391;exitDx=0;exitDy=0;exitPerimeter=0;" parent="1" source="7baba1c4bc27f4b0-10" target="GQSEvU85v_cJfRwWWk-1-17" edge="1">
          <mxGeometry relative="1" as="geometry">
            <mxPoint x="300" y="415" as="sourcePoint" />
          </mxGeometry>
        </mxCell>
        <mxCell id="GQSEvU85v_cJfRwWWk-1-19" value="saved_articles.csv" style="html=1;verticalAlign=bottom;endArrow=open;dashed=1;endSize=8;curved=0;rounded=0;exitX=0;exitY=1;exitDx=0;exitDy=-5;entryX=0.98;entryY=0.458;entryDx=0;entryDy=0;entryPerimeter=0;" parent="1" source="GQSEvU85v_cJfRwWWk-1-17" target="7baba1c4bc27f4b0-10" edge="1">
          <mxGeometry relative="1" as="geometry">
            <mxPoint x="510" y="555" as="targetPoint" />
          </mxGeometry>
        </mxCell>
        <mxCell id="GQSEvU85v_cJfRwWWk-1-22" value="loadArticlesFromFile()" style="html=1;verticalAlign=bottom;endArrow=block;curved=0;rounded=0;entryX=0;entryY=0;entryDx=0;entryDy=5;exitX=1.06;exitY=0.562;exitDx=0;exitDy=0;exitPerimeter=0;" parent="1" source="7baba1c4bc27f4b0-10" target="GQSEvU85v_cJfRwWWk-1-21" edge="1">
          <mxGeometry relative="1" as="geometry">
            <mxPoint x="515" y="645" as="sourcePoint" />
          </mxGeometry>
        </mxCell>
        <mxCell id="GQSEvU85v_cJfRwWWk-1-23" value="list of SimpleArticle objects&amp;nbsp;obtained" style="html=1;verticalAlign=bottom;endArrow=open;dashed=1;endSize=8;curved=0;rounded=0;exitX=0;exitY=1;exitDx=0;exitDy=-5;entryX=0.98;entryY=0.626;entryDx=0;entryDy=0;entryPerimeter=0;" parent="1" source="GQSEvU85v_cJfRwWWk-1-21" target="7baba1c4bc27f4b0-10" edge="1">
          <mxGeometry relative="1" as="geometry">
            <mxPoint x="515" y="715" as="targetPoint" />
          </mxGeometry>
        </mxCell>
        <mxCell id="GQSEvU85v_cJfRwWWk-1-25" value="load&amp;amp;setStopList(stopListFile)" style="html=1;verticalAlign=bottom;endArrow=block;curved=0;rounded=0;entryX=0;entryY=0;entryDx=0;entryDy=5;exitX=1.22;exitY=0.675;exitDx=0;exitDy=0;exitPerimeter=0;" parent="1" source="7baba1c4bc27f4b0-10" target="GQSEvU85v_cJfRwWWk-1-24" edge="1">
          <mxGeometry relative="1" as="geometry">
            <mxPoint x="300" y="585" as="sourcePoint" />
          </mxGeometry>
        </mxCell>
        <mxCell id="GQSEvU85v_cJfRwWWk-1-26" value="stoplist added" style="html=1;verticalAlign=bottom;endArrow=open;dashed=1;endSize=8;curved=0;rounded=0;exitX=0;exitY=1;exitDx=0;exitDy=-5;entryX=0.98;entryY=0.741;entryDx=0;entryDy=0;entryPerimeter=0;" parent="1" source="GQSEvU85v_cJfRwWWk-1-24" target="7baba1c4bc27f4b0-10" edge="1">
          <mxGeometry relative="1" as="geometry">
            <mxPoint x="290" y="625" as="targetPoint" />
          </mxGeometry>
        </mxCell>
        <mxCell id="GQSEvU85v_cJfRwWWk-1-28" value="countOccorencesPerFile(articleList)" style="html=1;verticalAlign=bottom;endArrow=block;curved=0;rounded=0;entryX=0;entryY=0;entryDx=0;entryDy=5;exitX=1.14;exitY=0.775;exitDx=0;exitDy=0;exitPerimeter=0;" parent="1" source="7baba1c4bc27f4b0-10" target="GQSEvU85v_cJfRwWWk-1-27" edge="1">
          <mxGeometry relative="1" as="geometry">
            <mxPoint x="650" y="645" as="sourcePoint" />
          </mxGeometry>
        </mxCell>
        <mxCell id="GQSEvU85v_cJfRwWWk-1-29" value="list of WeightedToken objects obtained" style="html=1;verticalAlign=bottom;endArrow=open;dashed=1;endSize=8;curved=0;rounded=0;exitX=0;exitY=1;exitDx=0;exitDy=-5;entryX=0.98;entryY=0.841;entryDx=0;entryDy=0;entryPerimeter=0;" parent="1" source="GQSEvU85v_cJfRwWWk-1-27" target="7baba1c4bc27f4b0-10" edge="1">
          <mxGeometry relative="1" as="geometry">
            <mxPoint x="290" y="685" as="targetPoint" />
          </mxGeometry>
        </mxCell>
        <mxCell id="GQSEvU85v_cJfRwWWk-1-34" value="saveWeightedWords()" style="html=1;verticalAlign=bottom;endArrow=block;curved=0;rounded=0;entryX=0;entryY=0;entryDx=0;entryDy=5;exitX=0.98;exitY=0.891;exitDx=0;exitDy=0;exitPerimeter=0;" parent="1" source="7baba1c4bc27f4b0-10" target="GQSEvU85v_cJfRwWWk-1-33" edge="1">
          <mxGeometry relative="1" as="geometry">
            <mxPoint x="515" y="705" as="sourcePoint" />
          </mxGeometry>
        </mxCell>
        <mxCell id="GQSEvU85v_cJfRwWWk-1-35" value="output saved in a file .txt" style="html=1;verticalAlign=bottom;endArrow=open;dashed=1;endSize=8;curved=0;rounded=0;exitX=0;exitY=1;exitDx=0;exitDy=-5;entryX=1.14;entryY=0.959;entryDx=0;entryDy=0;entryPerimeter=0;" parent="1" source="GQSEvU85v_cJfRwWWk-1-33" target="7baba1c4bc27f4b0-10" edge="1">
          <mxGeometry relative="1" as="geometry">
            <mxPoint x="300" y="755" as="targetPoint" />
          </mxGeometry>
        </mxCell>
      </root>
    </mxGraphModel>
  </diagram>
</mxfile>
